<?xml version="1.0" encoding="iso-8859-1"?>
<!-- Generator: Adobe Illustrator 19.0.0, SVG Export Plug-In . SVG Version: 6.00 Build 0)  -->
<svg version="1.1" id="Layer_1" xmlns="http://www.w3.org/2000/svg" xmlns:xlink="http://www.w3.org/1999/xlink" x="0px" y="0px"
	 viewBox="0 0 502 502" style="enable-background:new 0 0 502 502;" xml:space="preserve">
<g>
	<rect x="10" y="119.851" style="fill:#53A29D;" width="482" height="262.298"/>
	<g>
		<path d="M492,109.851H10c-5.522,0-10,4.477-10,10v43.716v174.865v43.716c0,5.523,4.478,10,10,10h482c5.522,0,10-4.477,10-10
			v-43.716V163.568v-43.716C502,114.328,497.522,109.851,492,109.851z M482,153.568H372H261v-23.716h221V153.568z M482,328.434H382
			V173.568h100V328.434z M251,270c-5.522,0-10,4.477-10,10v48.433H140V261h222v67.433H261V280C261,274.477,256.522,270,251,270z
			 M20,328.434V173.568h100v154.865H20V328.434z M362,173.568V241H140v-67.433H362z M241,129.852v23.716H130H20v-23.716H241z
			 M20,348.434h110h111v23.716H20V348.434z M261,372.149v-23.716h111h110v23.716H261z"/>
		<path d="M251,227c5.522,0,10-4.477,10-10v-20c0-5.523-4.478-10-10-10s-10,4.477-10,10v20C241,222.523,245.478,227,251,227z"/>
	</g>
</g>
<g>
</g>
<g>
</g>
<g>
</g>
<g>
</g>
<g>
</g>
<g>
</g>
<g>
</g>
<g>
</g>
<g>
</g>
<g>
</g>
<g>
</g>
<g>
</g>
<g>
</g>
<g>
</g>
<g>
</g>
</svg>
