<?xml version="1.0" encoding="iso-8859-1"?>
<!-- Generator: Adobe Illustrator 19.0.0, SVG Export Plug-In . SVG Version: 6.00 Build 0)  -->
<svg version="1.1" id="Layer_1" xmlns="http://www.w3.org/2000/svg" xmlns:xlink="http://www.w3.org/1999/xlink" x="0px" y="0px"
	 viewBox="0 0 511.997 511.997" style="enable-background:new 0 0 511.997 511.997;" xml:space="preserve">
<rect style="fill:#C69C6D;" width="511.997" height="511.997"/>
<rect x="112.004" y="8" style="fill:#29ABE2;" width="296.003" height="495.999"/>
<polygon style="fill:#0C6D95;" points="208,504 112,504 112,8 337.442,8 "/>
<g>
	<rect x="383.483" y="248.689" style="fill:#ED1C24;" width="56.425" height="15.674"/>
	<rect x="80.455" y="248.689" style="fill:#ED1C24;" width="55.38" height="15.674"/>
</g>
<rect x="144.198" y="248.689" width="15.674" height="15.674"/>
<rect x="168.231" y="248.689" width="15.674" height="15.674"/>
<rect x="192.264" y="248.689" width="15.674" height="15.674"/>
<rect x="216.297" y="248.689" width="15.674" height="15.674"/>
<rect x="240.33" y="248.689" width="15.674" height="15.674"/>
<rect x="264.363" y="248.689" width="15.674" height="15.674"/>
<rect x="288.396" y="248.689" width="15.674" height="15.674"/>
<rect x="312.429" y="248.689" width="15.674" height="15.674"/>
<rect x="336.462" y="248.689" width="15.674" height="15.674"/>
<rect x="360.495" y="248.689" width="15.674" height="15.674"/>
<path style="fill:#FFFFFF;" d="M104.163,0.163v511.675h311.673V0.163H104.163z M352.133,128.521H168.228V15.837h183.905V128.521z
	 M168.228,383.48h183.905v112.684H168.228L168.228,383.48L168.228,383.48z M400.163,496.163h-32.358V271.674h-15.674v96.132h-88.818
	v-96.132H247.64v96.132h-79.413v-96.132h-15.674v224.49h-32.717V15.837h32.717v224.49h15.674v-96.132h79.413v96.132h15.674v-96.132
	h88.818v96.132h15.674V15.837h32.358V496.163z"/>
<g>
</g>
<g>
</g>
<g>
</g>
<g>
</g>
<g>
</g>
<g>
</g>
<g>
</g>
<g>
</g>
<g>
</g>
<g>
</g>
<g>
</g>
<g>
</g>
<g>
</g>
<g>
</g>
<g>
</g>
</svg>
